<?xml version="1.0" standalone="no"?><!DOCTYPE svg PUBLIC "-//W3C//DTD SVG 1.1//EN" "http://www.w3.org/Graphics/SVG/1.1/DTD/svg11.dtd"><svg t="1495597935338" class="icon" style="" viewBox="0 0 1024 1024" version="1.1" xmlns="http://www.w3.org/2000/svg" p-id="4040" xmlns:xlink="http://www.w3.org/1999/xlink" width="200" height="200"><defs><style type="text/css"></style></defs><path d="M928 200l-144 0L784 136.754c0-52.934-43.064-96-96-96L336 40.754c-52.934 0-96 43.066-96 96L240 200 96 200c-53.02 0-96 42.98-96 96l0 164 1024 0 0-164C1024 242.98 981.02 200 928 200zM304 136.754c0-17.644 14.356-32 32-32l352 0c17.644 0 32 14.356 32 32L720 200 304 200 304 136.754z" p-id="4041"></path><path d="M0 884c0 53.02 42.98 96 96 96l832 0c53.02 0 96-42.98 96-96L1024 520.494 0 520 0 884zM392 580l240 0 0 60c0 33.136-26.864 60-60 60l-120 0c-33.136 0-60-26.864-60-60S392 580 392 580z" p-id="4042"></path></svg>