<?xml version="1.0" standalone="no"?><!DOCTYPE svg PUBLIC "-//W3C//DTD SVG 1.1//EN" "http://www.w3.org/Graphics/SVG/1.1/DTD/svg11.dtd"><svg t="1495597986709" class="icon" style="" viewBox="0 0 1024 1024" version="1.1" xmlns="http://www.w3.org/2000/svg" p-id="5399" xmlns:xlink="http://www.w3.org/1999/xlink" width="200" height="200"><defs><style type="text/css"></style></defs><path d="M889.344 737.92c-44.8-58.432-99.008-96.448-176.64-117.952l-72.768 254.72c0 23.488-19.2 42.688-42.688 42.688s-42.688-19.2-42.688-42.688v-202.688c0-29.44-23.872-53.312-53.312-53.312s-53.312 23.872-53.312 53.312v202.688c0 23.488-19.2 42.688-42.688 42.688s-42.688-19.2-42.688-42.688l-72.768-254.72c-77.632 21.76-131.84 59.52-176.64 117.952-17.728 23.04-27.328 69.312-27.968 94.08v106.688c0 47.168 38.208 85.312 85.312 85.312h661.312c47.168 0 85.312-38.208 85.312-85.312v-106.688c-0.64-24.768-10.24-71.04-27.968-94.08zM501.312 533.312c143.808 0 224-183.04 224-307.648s-100.288-225.728-224-225.728-224 101.12-224 225.728 77.632 307.648 224 307.648z" p-id="5400"></path></svg>