<?xml version="1.0" standalone="no"?><!DOCTYPE svg PUBLIC "-//W3C//DTD SVG 1.1//EN" "http://www.w3.org/Graphics/SVG/1.1/DTD/svg11.dtd"><svg t="1495597967709" class="icon" style="" viewBox="0 0 1024 1024" version="1.1" xmlns="http://www.w3.org/2000/svg" p-id="4733" xmlns:xlink="http://www.w3.org/1999/xlink" width="200" height="200"><defs><style type="text/css"></style></defs><path d="M341.239 250.855v-57.922c0-29.425 23.455-52.016 50.201-52.016h241.095c26.767 0 50.201 22.569 50.201 52.016v57.922h60.263v-57.922c0-56.065-48.494-102.787-110.466-102.787h-241.095c-61.951 0-110.466 46.722-110.466 102.787v57.922h60.263zM513.782 523.084l420.071 1.372v288.893c-0.023 66.526-53.923 120.454-120.436 120.527h-602.852c0 0 0 0 0 0-66.518 0-120.442-53.924-120.442-120.442 0-0.037 0-0.074 0-0.112v-290.849l423.657 0.633zM90.125 461.070v-89.668c0.012-66.535 53.916-120.476 120.436-120.547h602.852c0 0 0 0 0 0 66.518 0 120.442 53.924 120.442 120.442 0 0.037 0 0.074 0 0.112v91.877l-843.728-2.236z" p-id="4734"></path></svg>